<svg width="79" height="79" viewBox="0 0 79 79" fill="none" xmlns="http://www.w3.org/2000/svg">
<path d="M30.1835 33.9824C31.0967 33.9824 31.8793 34.2032 32.5315 34.6447C33.1938 35.0962 33.6955 35.7434 34.0367 36.5863C34.3879 37.4392 34.5635 38.4527 34.5635 39.6267C34.5635 40.8007 34.3879 41.8091 34.0367 42.652C33.6955 43.5049 33.1938 44.1521 32.5315 44.5936C31.8793 45.0451 31.0967 45.2709 30.1835 45.2709C29.2604 45.2709 28.4677 45.0451 27.8054 44.5936C27.1432 44.1521 26.6364 43.5049 26.2852 42.652C25.9341 41.8091 25.7585 40.8007 25.7585 39.6267C25.7585 38.4527 25.9341 37.4392 26.2852 36.5863C26.6364 35.7434 27.1432 35.0962 27.8054 34.6447C28.4677 34.2032 29.2604 33.9824 30.1835 33.9824Z" fill="#02A100"/>
<path d="M48.4643 33.9824C49.3774 33.9824 50.1601 34.2032 50.8123 34.6447C51.4746 35.0962 51.9763 35.7434 52.3174 36.5863C52.6686 37.4392 52.8442 38.4527 52.8442 39.6267C52.8442 40.8007 52.6686 41.8091 52.3174 42.652C51.9763 43.5049 51.4746 44.1521 50.8123 44.5936C50.1601 45.0451 49.3774 45.2709 48.4643 45.2709C47.5412 45.2709 46.7485 45.0451 46.0862 44.5936C45.4239 44.1521 44.9172 43.5049 44.566 42.652C44.2148 41.8091 44.0392 40.8007 44.0392 39.6267C44.0392 38.4527 44.2148 37.4392 44.566 36.5863C44.9172 35.7434 45.4239 35.0962 46.0862 34.6447C46.7485 34.2032 47.5412 33.9824 48.4643 33.9824Z" fill="#02A100"/>
<path d="M79 39.5C79 49.976 74.8384 60.023 67.4307 67.4307C60.023 74.8384 49.9761 79 39.5 79C29.0239 79 18.977 74.8384 11.5693 67.4307C4.16159 60.023 -1.3936e-06 49.9761 -1.7266e-06 39.5L15.8 39.5C15.8 45.7856 18.297 51.8138 22.7416 56.2584C27.1862 60.703 33.2144 63.2 39.5 63.2C45.7856 63.2 51.8138 60.703 56.2584 56.2584C60.703 51.8138 63.2 45.7856 63.2 39.5L79 39.5Z" fill="#02A100"/>
</svg>
